<mxfile host="app.diagrams.net" modified="2022-07-12T01:58:51.770Z" agent="5.0 (Macintosh; Intel Mac OS X 10_15_7) AppleWebKit/537.36 (KHTML, like Gecko) Chrome/103.0.5060.114 Safari/537.36 Edg/103.0.1264.51" etag="T9tKb-cmty_0t6sI-VMV" version="20.0.4" type="github">
  <diagram id="kgpKYQtTHZ0yAKxKKP6v" name="Page-1">
    <mxGraphModel dx="1354" dy="801" grid="1" gridSize="10" guides="1" tooltips="1" connect="1" arrows="1" fold="1" page="1" pageScale="1" pageWidth="1400" pageHeight="850" background="#ffffff" math="0" shadow="0">
      <root>
        <mxCell id="0" />
        <mxCell id="1" parent="0" />
        <mxCell id="9y9QFqGGJcDsPfIhqEaE-58" value="" style="rounded=0;whiteSpace=wrap;html=1;fontSize=19;strokeWidth=1;" parent="1" vertex="1">
          <mxGeometry x="33" y="567" width="160" height="110" as="geometry" />
        </mxCell>
        <mxCell id="8O99CsfA_-y4S26lQY9A-1" value="&lt;h1&gt;Controller&lt;/h1&gt;&lt;p&gt;클라이언트의 요청을 각 요청에 따라&amp;nbsp;&lt;span style=&quot;background-color: initial;&quot;&gt;domain layer 와 매칭시킨다.&lt;/span&gt;&lt;/p&gt;&lt;p&gt;&lt;span style=&quot;background-color: initial;&quot;&gt;req body 가 있는 요청의 경우 dto 를 통해 validation 과정을 거쳐 에러상황에 맞는 메시지를client 단으로 response 한다.&lt;/span&gt;&lt;/p&gt;&lt;p&gt;&lt;br&gt;&lt;/p&gt;" style="text;html=1;strokeColor=none;fillColor=none;spacing=5;spacingTop=-20;whiteSpace=wrap;overflow=hidden;rounded=0;" parent="1" vertex="1">
          <mxGeometry x="234" y="40" width="250" height="170" as="geometry" />
        </mxCell>
        <mxCell id="8O99CsfA_-y4S26lQY9A-3" value="Controller" style="swimlane;fillColor=#dae8fc;strokeColor=#6c8ebf;" parent="1" vertex="1">
          <mxGeometry x="234" y="310" width="256" height="360" as="geometry" />
        </mxCell>
        <mxCell id="9y9QFqGGJcDsPfIhqEaE-3" value="MEMBER" style="rounded=1;whiteSpace=wrap;html=1;fontSize=19;strokeWidth=1;" parent="8O99CsfA_-y4S26lQY9A-3" vertex="1">
          <mxGeometry x="68" y="47" width="120" height="40" as="geometry" />
        </mxCell>
        <mxCell id="9y9QFqGGJcDsPfIhqEaE-13" value="ORDER" style="rounded=1;whiteSpace=wrap;html=1;fontSize=19;strokeWidth=1;" parent="8O99CsfA_-y4S26lQY9A-3" vertex="1">
          <mxGeometry x="68" y="147" width="120" height="40" as="geometry" />
        </mxCell>
        <mxCell id="9y9QFqGGJcDsPfIhqEaE-12" value="COFFEE" style="rounded=1;whiteSpace=wrap;html=1;fontSize=19;strokeWidth=1;" parent="8O99CsfA_-y4S26lQY9A-3" vertex="1">
          <mxGeometry x="68" y="97" width="120" height="40" as="geometry" />
        </mxCell>
        <mxCell id="9y9QFqGGJcDsPfIhqEaE-53" value="OAuth 2.0" style="rounded=1;whiteSpace=wrap;html=1;fontSize=19;strokeWidth=1;" parent="8O99CsfA_-y4S26lQY9A-3" vertex="1">
          <mxGeometry x="68" y="200" width="120" height="40" as="geometry" />
        </mxCell>
        <mxCell id="8O99CsfA_-y4S26lQY9A-6" value="Service &amp; Business Layer" style="swimlane;fillColor=#dae8fc;strokeColor=#6c8ebf;" parent="1" vertex="1">
          <mxGeometry x="560" y="310" width="290" height="360" as="geometry" />
        </mxCell>
        <mxCell id="9y9QFqGGJcDsPfIhqEaE-14" value="MEMBER" style="rounded=1;whiteSpace=wrap;html=1;fontSize=19;strokeWidth=1;" parent="8O99CsfA_-y4S26lQY9A-6" vertex="1">
          <mxGeometry x="85" y="47" width="120" height="40" as="geometry" />
        </mxCell>
        <mxCell id="9y9QFqGGJcDsPfIhqEaE-15" value="ORDER" style="rounded=1;whiteSpace=wrap;html=1;fontSize=19;strokeWidth=1;" parent="8O99CsfA_-y4S26lQY9A-6" vertex="1">
          <mxGeometry x="85" y="147" width="120" height="40" as="geometry" />
        </mxCell>
        <mxCell id="9y9QFqGGJcDsPfIhqEaE-16" value="COFFEE" style="rounded=1;whiteSpace=wrap;html=1;fontSize=19;strokeWidth=1;" parent="8O99CsfA_-y4S26lQY9A-6" vertex="1">
          <mxGeometry x="85" y="97" width="120" height="40" as="geometry" />
        </mxCell>
        <mxCell id="9y9QFqGGJcDsPfIhqEaE-54" value="OAuth 2.0" style="rounded=1;whiteSpace=wrap;html=1;fontSize=19;strokeWidth=1;" parent="8O99CsfA_-y4S26lQY9A-6" vertex="1">
          <mxGeometry x="85" y="200" width="120" height="40" as="geometry" />
        </mxCell>
        <mxCell id="8O99CsfA_-y4S26lQY9A-7" value="Repository" style="swimlane;fillColor=#dae8fc;strokeColor=#6c8ebf;" parent="1" vertex="1">
          <mxGeometry x="910" y="310" width="240" height="360" as="geometry" />
        </mxCell>
        <mxCell id="9y9QFqGGJcDsPfIhqEaE-17" value="MEMBER" style="rounded=1;whiteSpace=wrap;html=1;fontSize=19;strokeWidth=1;" parent="8O99CsfA_-y4S26lQY9A-7" vertex="1">
          <mxGeometry x="60" y="47" width="120" height="40" as="geometry" />
        </mxCell>
        <mxCell id="9y9QFqGGJcDsPfIhqEaE-18" value="ORDER" style="rounded=1;whiteSpace=wrap;html=1;fontSize=19;strokeWidth=1;" parent="8O99CsfA_-y4S26lQY9A-7" vertex="1">
          <mxGeometry x="60" y="147" width="120" height="40" as="geometry" />
        </mxCell>
        <mxCell id="9y9QFqGGJcDsPfIhqEaE-19" value="COFFEE" style="rounded=1;whiteSpace=wrap;html=1;fontSize=19;strokeWidth=1;" parent="8O99CsfA_-y4S26lQY9A-7" vertex="1">
          <mxGeometry x="60" y="97" width="120" height="40" as="geometry" />
        </mxCell>
        <mxCell id="8O99CsfA_-y4S26lQY9A-10" value="http&lt;br&gt;req" style="whiteSpace=wrap;html=1;aspect=fixed;fontSize=16;fillColor=#f5f5f5;fontColor=#333333;strokeColor=#666666;" parent="1" vertex="1">
          <mxGeometry x="33" y="450" width="80" height="80" as="geometry" />
        </mxCell>
        <mxCell id="8O99CsfA_-y4S26lQY9A-12" value="" style="shape=flexArrow;endArrow=classic;startArrow=classic;html=1;rounded=0;fontSize=16;" parent="1" edge="1">
          <mxGeometry width="100" height="100" relative="1" as="geometry">
            <mxPoint x="40" y="280" as="sourcePoint" />
            <mxPoint x="490" y="280" as="targetPoint" />
          </mxGeometry>
        </mxCell>
        <mxCell id="8O99CsfA_-y4S26lQY9A-13" value="&lt;font style=&quot;font-size: 21px;&quot;&gt;Presentation Layer&lt;/font&gt;" style="text;html=1;strokeColor=none;fillColor=none;align=center;verticalAlign=middle;whiteSpace=wrap;rounded=0;fontSize=16;strokeWidth=1;" parent="1" vertex="1">
          <mxGeometry x="174" y="230" width="180" height="30" as="geometry" />
        </mxCell>
        <mxCell id="8O99CsfA_-y4S26lQY9A-14" value="&lt;font style=&quot;font-size: 19px;&quot;&gt;H2&lt;br&gt;Mysql&lt;br&gt;MongoDB&lt;/font&gt;" style="shape=cylinder3;whiteSpace=wrap;html=1;boundedLbl=1;backgroundOutline=1;size=15;fontSize=21;strokeWidth=1;fillColor=#f5f5f5;fontColor=#333333;strokeColor=#666666;" parent="1" vertex="1">
          <mxGeometry x="1240" y="320" width="100" height="340" as="geometry" />
        </mxCell>
        <mxCell id="8O99CsfA_-y4S26lQY9A-15" value="" style="shape=flexArrow;endArrow=classic;startArrow=classic;html=1;rounded=0;fontSize=16;" parent="1" edge="1">
          <mxGeometry width="100" height="100" relative="1" as="geometry">
            <mxPoint x="490" y="280" as="sourcePoint" />
            <mxPoint x="890" y="280" as="targetPoint" />
          </mxGeometry>
        </mxCell>
        <mxCell id="8O99CsfA_-y4S26lQY9A-16" value="" style="shape=flexArrow;endArrow=classic;startArrow=classic;html=1;rounded=0;fontSize=16;" parent="1" edge="1">
          <mxGeometry width="100" height="100" relative="1" as="geometry">
            <mxPoint x="890" y="280" as="sourcePoint" />
            <mxPoint x="1340" y="280" as="targetPoint" />
          </mxGeometry>
        </mxCell>
        <mxCell id="8O99CsfA_-y4S26lQY9A-17" value="&lt;font style=&quot;font-size: 21px;&quot;&gt;Domain Layer&lt;/font&gt;" style="text;html=1;strokeColor=none;fillColor=none;align=center;verticalAlign=middle;whiteSpace=wrap;rounded=0;fontSize=16;strokeWidth=1;" parent="1" vertex="1">
          <mxGeometry x="610" y="230" width="180" height="30" as="geometry" />
        </mxCell>
        <mxCell id="8O99CsfA_-y4S26lQY9A-18" value="&lt;font style=&quot;font-size: 21px;&quot;&gt;Database Layer&lt;/font&gt;" style="text;html=1;strokeColor=none;fillColor=none;align=center;verticalAlign=middle;whiteSpace=wrap;rounded=0;fontSize=16;strokeWidth=1;" parent="1" vertex="1">
          <mxGeometry x="1060" y="230" width="180" height="30" as="geometry" />
        </mxCell>
        <mxCell id="9y9QFqGGJcDsPfIhqEaE-5" value="&lt;h1&gt;API DOC&lt;/h1&gt;&lt;div&gt;client 와 소통을 위한 API document&lt;/div&gt;&lt;div&gt;req res reference 를 제공&lt;/div&gt;&lt;div&gt;&lt;br&gt;&lt;/div&gt;" style="text;html=1;strokeColor=none;fillColor=none;spacing=5;spacingTop=-20;whiteSpace=wrap;overflow=hidden;rounded=0;" parent="1" vertex="1">
          <mxGeometry x="44" y="570" width="150" height="120" as="geometry" />
        </mxCell>
        <mxCell id="9y9QFqGGJcDsPfIhqEaE-31" value="&lt;h1&gt;Domain&lt;/h1&gt;&lt;p&gt;controller 에 의해 매칭 된 요청을 비지니스 로직에 따라 처리한다.&lt;/p&gt;&lt;p&gt;비지니스 로직상 exception 발생시, Business logic exception code를 response 한다.&lt;/p&gt;&lt;p&gt;에러없이 비지니스 로직 실행 후&lt;/p&gt;&lt;p&gt;Mapper 를 이용해 DTO 클래스를 각 도메인 별 Entity 클래스로 변환하여&lt;span style=&quot;background-color: initial;&quot;&gt;Repository 로 전달한다.&lt;/span&gt;&lt;/p&gt;&lt;p&gt;&lt;br&gt;&lt;/p&gt;&lt;p&gt;&lt;br&gt;&lt;/p&gt;" style="text;html=1;strokeColor=none;fillColor=none;spacing=5;spacingTop=-20;whiteSpace=wrap;overflow=hidden;rounded=0;" parent="1" vertex="1">
          <mxGeometry x="570" y="40" width="280" height="270" as="geometry" />
        </mxCell>
        <mxCell id="9y9QFqGGJcDsPfIhqEaE-32" value="&lt;h1&gt;Repository&lt;/h1&gt;&lt;p&gt;Domain Layer 로부터 전달된 entity 클래스의 data를 database 저당한다.&lt;/p&gt;&lt;p&gt;&lt;br&gt;&lt;/p&gt;&lt;p&gt;&lt;br&gt;&lt;/p&gt;" style="text;html=1;strokeColor=none;fillColor=none;spacing=5;spacingTop=-20;whiteSpace=wrap;overflow=hidden;rounded=0;" parent="1" vertex="1">
          <mxGeometry x="920" y="40" width="190" height="190" as="geometry" />
        </mxCell>
        <mxCell id="9y9QFqGGJcDsPfIhqEaE-33" value="" style="endArrow=classic;html=1;rounded=0;fontSize=19;" parent="1" edge="1">
          <mxGeometry relative="1" as="geometry">
            <mxPoint x="123" y="480" as="sourcePoint" />
            <mxPoint x="223" y="480" as="targetPoint" />
          </mxGeometry>
        </mxCell>
        <mxCell id="9y9QFqGGJcDsPfIhqEaE-34" value="req" style="edgeLabel;resizable=0;html=1;align=center;verticalAlign=middle;fontSize=19;strokeWidth=1;" parent="9y9QFqGGJcDsPfIhqEaE-33" connectable="0" vertex="1">
          <mxGeometry relative="1" as="geometry" />
        </mxCell>
        <mxCell id="9y9QFqGGJcDsPfIhqEaE-35" value="" style="shape=link;html=1;rounded=0;fontSize=19;" parent="1" edge="1">
          <mxGeometry width="100" relative="1" as="geometry">
            <mxPoint x="490" y="500" as="sourcePoint" />
            <mxPoint x="560" y="499.5" as="targetPoint" />
          </mxGeometry>
        </mxCell>
        <mxCell id="9y9QFqGGJcDsPfIhqEaE-36" value="" style="shape=link;html=1;rounded=0;fontSize=19;" parent="1" edge="1">
          <mxGeometry width="100" relative="1" as="geometry">
            <mxPoint x="850" y="500" as="sourcePoint" />
            <mxPoint x="910" y="500" as="targetPoint" />
          </mxGeometry>
        </mxCell>
        <mxCell id="9y9QFqGGJcDsPfIhqEaE-38" value="" style="endArrow=classic;html=1;rounded=0;fontSize=19;" parent="1" edge="1">
          <mxGeometry relative="1" as="geometry">
            <mxPoint x="223" y="510" as="sourcePoint" />
            <mxPoint x="123" y="510" as="targetPoint" />
          </mxGeometry>
        </mxCell>
        <mxCell id="9y9QFqGGJcDsPfIhqEaE-39" value="res" style="edgeLabel;resizable=0;html=1;align=center;verticalAlign=middle;fontSize=19;strokeWidth=1;" parent="9y9QFqGGJcDsPfIhqEaE-38" connectable="0" vertex="1">
          <mxGeometry relative="1" as="geometry" />
        </mxCell>
        <mxCell id="9y9QFqGGJcDsPfIhqEaE-40" value="" style="endArrow=classic;html=1;rounded=0;fontSize=19;" parent="1" edge="1">
          <mxGeometry relative="1" as="geometry">
            <mxPoint x="460" y="450" as="sourcePoint" />
            <mxPoint x="590" y="450" as="targetPoint" />
          </mxGeometry>
        </mxCell>
        <mxCell id="9y9QFqGGJcDsPfIhqEaE-41" value="req" style="edgeLabel;resizable=0;html=1;align=center;verticalAlign=middle;fontSize=19;strokeWidth=1;" parent="9y9QFqGGJcDsPfIhqEaE-40" connectable="0" vertex="1">
          <mxGeometry relative="1" as="geometry" />
        </mxCell>
        <mxCell id="9y9QFqGGJcDsPfIhqEaE-42" value="" style="endArrow=classic;html=1;rounded=0;fontSize=19;" parent="1" edge="1">
          <mxGeometry relative="1" as="geometry">
            <mxPoint x="830" y="450" as="sourcePoint" />
            <mxPoint x="930" y="450" as="targetPoint" />
          </mxGeometry>
        </mxCell>
        <mxCell id="9y9QFqGGJcDsPfIhqEaE-43" value="req" style="edgeLabel;resizable=0;html=1;align=center;verticalAlign=middle;fontSize=19;strokeWidth=1;" parent="9y9QFqGGJcDsPfIhqEaE-42" connectable="0" vertex="1">
          <mxGeometry relative="1" as="geometry" />
        </mxCell>
        <mxCell id="9y9QFqGGJcDsPfIhqEaE-44" value="" style="endArrow=classic;html=1;rounded=0;fontSize=19;entryX=0.2;entryY=0.382;entryDx=0;entryDy=0;entryPerimeter=0;" parent="1" target="8O99CsfA_-y4S26lQY9A-14" edge="1">
          <mxGeometry relative="1" as="geometry">
            <mxPoint x="1130" y="450" as="sourcePoint" />
            <mxPoint x="1230" y="450" as="targetPoint" />
          </mxGeometry>
        </mxCell>
        <mxCell id="9y9QFqGGJcDsPfIhqEaE-45" value="req" style="edgeLabel;resizable=0;html=1;align=center;verticalAlign=middle;fontSize=19;strokeWidth=1;" parent="9y9QFqGGJcDsPfIhqEaE-44" connectable="0" vertex="1">
          <mxGeometry relative="1" as="geometry" />
        </mxCell>
        <mxCell id="9y9QFqGGJcDsPfIhqEaE-46" value="" style="endArrow=classic;html=1;rounded=0;fontSize=19;" parent="1" edge="1">
          <mxGeometry relative="1" as="geometry">
            <mxPoint x="590" y="540" as="sourcePoint" />
            <mxPoint x="460" y="540" as="targetPoint" />
          </mxGeometry>
        </mxCell>
        <mxCell id="9y9QFqGGJcDsPfIhqEaE-47" value="res" style="edgeLabel;resizable=0;html=1;align=center;verticalAlign=middle;fontSize=19;strokeWidth=1;" parent="9y9QFqGGJcDsPfIhqEaE-46" connectable="0" vertex="1">
          <mxGeometry relative="1" as="geometry" />
        </mxCell>
        <mxCell id="9y9QFqGGJcDsPfIhqEaE-48" value="" style="endArrow=classic;html=1;rounded=0;fontSize=19;" parent="1" edge="1">
          <mxGeometry relative="1" as="geometry">
            <mxPoint x="930" y="540" as="sourcePoint" />
            <mxPoint x="830" y="540" as="targetPoint" />
          </mxGeometry>
        </mxCell>
        <mxCell id="9y9QFqGGJcDsPfIhqEaE-49" value="res" style="edgeLabel;resizable=0;html=1;align=center;verticalAlign=middle;fontSize=19;strokeWidth=1;" parent="9y9QFqGGJcDsPfIhqEaE-48" connectable="0" vertex="1">
          <mxGeometry relative="1" as="geometry" />
        </mxCell>
        <mxCell id="9y9QFqGGJcDsPfIhqEaE-51" value="" style="endArrow=classic;html=1;rounded=0;fontSize=19;" parent="1" edge="1">
          <mxGeometry relative="1" as="geometry">
            <mxPoint x="1260" y="540" as="sourcePoint" />
            <mxPoint x="1130" y="540" as="targetPoint" />
          </mxGeometry>
        </mxCell>
        <mxCell id="9y9QFqGGJcDsPfIhqEaE-52" value="res" style="edgeLabel;resizable=0;html=1;align=center;verticalAlign=middle;fontSize=19;strokeWidth=1;" parent="9y9QFqGGJcDsPfIhqEaE-51" connectable="0" vertex="1">
          <mxGeometry relative="1" as="geometry" />
        </mxCell>
        <mxCell id="9y9QFqGGJcDsPfIhqEaE-55" value="External API" style="swimlane;fontSize=19;strokeWidth=1;" parent="1" vertex="1">
          <mxGeometry x="560" y="780" width="200" height="200" as="geometry" />
        </mxCell>
        <mxCell id="9y9QFqGGJcDsPfIhqEaE-56" value="OAuth 2.0" style="rounded=1;whiteSpace=wrap;html=1;fontSize=19;strokeWidth=1;" parent="9y9QFqGGJcDsPfIhqEaE-55" vertex="1">
          <mxGeometry x="40" y="40" width="120" height="40" as="geometry" />
        </mxCell>
        <mxCell id="9y9QFqGGJcDsPfIhqEaE-59" value="" style="endArrow=classic;html=1;rounded=0;fontSize=19;" parent="1" edge="1">
          <mxGeometry relative="1" as="geometry">
            <mxPoint x="700" y="690" as="sourcePoint" />
            <mxPoint x="700" y="760" as="targetPoint" />
          </mxGeometry>
        </mxCell>
        <mxCell id="9y9QFqGGJcDsPfIhqEaE-60" value="req" style="edgeLabel;resizable=0;html=1;align=center;verticalAlign=middle;fontSize=19;strokeWidth=1;" parent="9y9QFqGGJcDsPfIhqEaE-59" connectable="0" vertex="1">
          <mxGeometry relative="1" as="geometry" />
        </mxCell>
        <mxCell id="9y9QFqGGJcDsPfIhqEaE-61" value="" style="endArrow=classic;html=1;rounded=0;fontSize=19;" parent="1" edge="1">
          <mxGeometry relative="1" as="geometry">
            <mxPoint x="620" y="760" as="sourcePoint" />
            <mxPoint x="620" y="690" as="targetPoint" />
          </mxGeometry>
        </mxCell>
        <mxCell id="9y9QFqGGJcDsPfIhqEaE-62" value="res" style="edgeLabel;resizable=0;html=1;align=center;verticalAlign=middle;fontSize=19;strokeWidth=1;" parent="9y9QFqGGJcDsPfIhqEaE-61" connectable="0" vertex="1">
          <mxGeometry relative="1" as="geometry" />
        </mxCell>
      </root>
    </mxGraphModel>
  </diagram>
</mxfile>
